<mxfile host="drawio-plugin" modified="2023-02-23T21:34:34.677Z" agent="5.0 (Macintosh; Intel Mac OS X 13_0_1) AppleWebKit/537.36 (KHTML, like Gecko) Chrome/89.0.4389.114 Safari/537.36" version="15.5.4" etag="AMgql-s91rMn9h2p739h" type="embed"><diagram id="OawGp7KX6MiBF2rVR7bC" name="Page-1"><mxGraphModel dx="2387" dy="420" grid="1" gridSize="10" guides="1" tooltips="1" connect="1" arrows="1" fold="1" page="1" pageScale="1" pageWidth="850" pageHeight="1100" math="0" shadow="0"><root><mxCell id="0"/><mxCell id="1" parent="0"/><mxCell id="2" value="HAS_STYLE" style="edgeStyle=none;html=1;" edge="1" parent="1" source="4" target="10"><mxGeometry relative="1" as="geometry"/></mxCell><mxCell id="3" value="HAS_FUNCTIONALITY" style="edgeStyle=none;html=1;" edge="1" parent="1" source="4" target="12"><mxGeometry relative="1" as="geometry"/></mxCell><mxCell id="4" value="&lt;b&gt;View&lt;/b&gt;&lt;br&gt;- name" style="ellipse;whiteSpace=wrap;html=1;aspect=fixed;fillColor=#0050ef;strokeColor=#001DBC;fontColor=#ffffff;" vertex="1" parent="1"><mxGeometry x="120" y="1370" width="120" height="120" as="geometry"/></mxCell><mxCell id="5" value="HAS_VIEW" style="edgeStyle=none;html=1;" edge="1" parent="1" source="6" target="4"><mxGeometry relative="1" as="geometry"/></mxCell><mxCell id="6" value="&lt;b&gt;Project&lt;/b&gt;&lt;br&gt;- name" style="ellipse;whiteSpace=wrap;html=1;aspect=fixed;fillColor=#0050ef;strokeColor=#001DBC;fontColor=#ffffff;" vertex="1" parent="1"><mxGeometry x="120" y="1140" width="120" height="120" as="geometry"/></mxCell><mxCell id="8" value="NODE_STYLE" style="edgeStyle=none;html=1;" edge="1" parent="1" source="10" target="23"><mxGeometry x="-0.0313" y="-4" relative="1" as="geometry"><Array as="points"><mxPoint x="760" y="1200"/></Array><mxPoint as="offset"/></mxGeometry></mxCell><mxCell id="42" value="REL_STYLE" style="edgeStyle=none;rounded=0;orthogonalLoop=1;jettySize=auto;html=1;" edge="1" parent="1" source="10" target="39"><mxGeometry relative="1" as="geometry"><Array as="points"><mxPoint x="760" y="1400"/></Array></mxGeometry></mxCell><mxCell id="43" value="DEFAULT_REL_STYLE" style="edgeStyle=none;rounded=0;orthogonalLoop=1;jettySize=auto;html=1;" edge="1" parent="1" source="10" target="39"><mxGeometry relative="1" as="geometry"><Array as="points"><mxPoint x="730" y="1510"/></Array></mxGeometry></mxCell><mxCell id="10" value="&lt;b&gt;Style&lt;/b&gt;&lt;br&gt;- name" style="ellipse;whiteSpace=wrap;html=1;aspect=fixed;fillColor=#0050ef;strokeColor=#001DBC;fontColor=#ffffff;" vertex="1" parent="1"><mxGeometry x="460" y="1260" width="120" height="120" as="geometry"/></mxCell><mxCell id="11" value="HAS_ACTION" style="edgeStyle=none;html=1;" edge="1" parent="1" source="12" target="32"><mxGeometry relative="1" as="geometry"/></mxCell><mxCell id="48" value="DEFAULT_NODE_ACTION" style="edgeStyle=none;rounded=0;orthogonalLoop=1;jettySize=auto;html=1;" edge="1" parent="1" source="12" target="32"><mxGeometry relative="1" as="geometry"><Array as="points"><mxPoint x="680" y="1740"/></Array></mxGeometry></mxCell><mxCell id="49" value="DEFAULT_REL_ACTION" style="edgeStyle=none;rounded=0;orthogonalLoop=1;jettySize=auto;html=1;" edge="1" parent="1" source="12" target="32"><mxGeometry relative="1" as="geometry"><Array as="points"><mxPoint x="680" y="1840"/></Array></mxGeometry></mxCell><mxCell id="12" value="&lt;b&gt;Functionality&lt;/b&gt;&lt;br&gt;- name" style="ellipse;whiteSpace=wrap;html=1;aspect=fixed;fillColor=#0050ef;strokeColor=#001DBC;fontColor=#ffffff;" vertex="1" parent="1"><mxGeometry x="480" y="1730" width="120" height="120" as="geometry"/></mxCell><mxCell id="14" value="AUTOGENERATED_FROM" style="edgeStyle=none;html=1;" edge="1" parent="1" source="12" target="20"><mxGeometry x="-0.5132" y="1" relative="1" as="geometry"><mxPoint x="510" y="3180" as="sourcePoint"/><mxPoint x="238.75071864575693" y="3302.1800270363156" as="targetPoint"/><mxPoint as="offset"/></mxGeometry></mxCell><mxCell id="15" value="DEFAULT_NODE_STYLE" style="edgeStyle=none;html=1;" edge="1" parent="1" source="10" target="23"><mxGeometry relative="1" as="geometry"><Array as="points"><mxPoint x="780" y="1330"/></Array><mxPoint x="1113.0790021169696" y="3138.97366596101" as="sourcePoint"/><mxPoint x="953.6351579147081" y="3264.8512981990134" as="targetPoint"/></mxGeometry></mxCell><mxCell id="16" value="QUERIES_WITH" style="edgeStyle=none;html=1;" edge="1" parent="1" source="4" target="52"><mxGeometry x="-0.0182" relative="1" as="geometry"><mxPoint as="offset"/><mxPoint x="1192.4878186232568" y="3339.9982160849777" as="sourcePoint"/><mxPoint x="810" y="3289.9999999999995" as="targetPoint"/></mxGeometry></mxCell><mxCell id="17" value="IMPLEMENTED" style="edgeStyle=none;html=1;" edge="1" parent="1" source="52" target="18"><mxGeometry x="-0.1464" y="1" relative="1" as="geometry"><mxPoint as="offset"/></mxGeometry></mxCell><mxCell id="18" value="NativeCall&lt;br&gt;- cypher" style="ellipse;whiteSpace=wrap;html=1;aspect=fixed;fillColor=#fa6800;fontColor=#000000;strokeColor=#C73500;" vertex="1" parent="1"><mxGeometry x="480" y="2500" width="120" height="120" as="geometry"/></mxCell><mxCell id="20" value="&lt;b style=&quot;color: rgb(0 , 0 , 0) ; font-size: 13px&quot;&gt;Metagraph&lt;/b&gt;&lt;br style=&quot;color: rgb(0 , 0 , 0)&quot;&gt;&lt;span style=&quot;color: rgb(0 , 0 , 0) ; font-size: 13px&quot;&gt;- name&lt;/span&gt;&lt;font style=&quot;font-size: 13px&quot; color=&quot;#000000&quot;&gt;&lt;br&gt;&lt;/font&gt;" style="ellipse;whiteSpace=wrap;html=1;aspect=fixed;direction=west;strokeColor=#56517e;fillColor=#d0cee2;" vertex="1" parent="1"><mxGeometry x="480" y="1940" width="120" height="120" as="geometry"/></mxCell><mxCell id="23" value="&lt;b&gt;NodeStyle&lt;br&gt;&lt;/b&gt;- color&lt;br&gt;- size&lt;br&gt;- icon" style="ellipse;whiteSpace=wrap;html=1;aspect=fixed;strokeColor=#666666;fillColor=#f5f5f5;fontColor=#333333;" vertex="1" parent="1"><mxGeometry x="950" y="1150" width="120" height="120" as="geometry"/></mxCell><mxCell id="24" value="HAS_CAPTION" style="edgeStyle=none;html=1;" edge="1" parent="1" source="23" target="26"><mxGeometry relative="1" as="geometry"/></mxCell><mxCell id="26" value="&lt;font style=&quot;font-size: 13px&quot; color=&quot;#000000&quot;&gt;&lt;b&gt;Property&lt;/b&gt;&lt;br&gt;- name&lt;br&gt;- type&lt;br&gt;&lt;/font&gt;" style="ellipse;whiteSpace=wrap;html=1;aspect=fixed;direction=west;strokeColor=#d79b00;fillColor=#FF9999;" vertex="1" parent="1"><mxGeometry x="1275" y="1260" width="120" height="120" as="geometry"/></mxCell><mxCell id="27" value="FOR_NODE" style="edgeStyle=none;html=1;" edge="1" parent="1" source="23" target="29"><mxGeometry relative="1" as="geometry"><mxPoint x="2241.7564296111154" y="3630.000494204882" as="targetPoint"/></mxGeometry></mxCell><mxCell id="29" value="&lt;b&gt;&lt;font style=&quot;font-size: 13px&quot; color=&quot;#000000&quot;&gt;NodeDef&lt;br&gt;&lt;/font&gt;&lt;/b&gt;&lt;span style=&quot;color: rgb(0 , 0 , 0) ; font-size: 13px&quot;&gt;- name&lt;/span&gt;&lt;font color=&quot;#000000&quot;&gt;&lt;br&gt;&lt;/font&gt;" style="ellipse;whiteSpace=wrap;html=1;aspect=fixed;direction=west;strokeColor=#9673a6;fillColor=#CCFF99;" vertex="1" parent="1"><mxGeometry x="1275" y="1110" width="120" height="120" as="geometry"/></mxCell><mxCell id="30" value="WITH_PARAMETER" style="edgeStyle=none;html=1;" edge="1" parent="1" source="32" target="35"><mxGeometry relative="1" as="geometry"/></mxCell><mxCell id="31" value="EXECUTES" style="edgeStyle=none;html=1;" edge="1" parent="1" source="32" target="52"><mxGeometry relative="1" as="geometry"/></mxCell><mxCell id="50" value="PROVIDES_CONTEX" style="edgeStyle=none;rounded=0;orthogonalLoop=1;jettySize=auto;html=1;" edge="1" parent="1" source="32" target="38"><mxGeometry relative="1" as="geometry"/></mxCell><mxCell id="32" value="&lt;b&gt;Action&lt;/b&gt;&lt;br&gt;- name&lt;br&gt;- group&lt;br&gt;- icon&lt;br&gt;- updateStrategy" style="ellipse;whiteSpace=wrap;html=1;aspect=fixed;fillColor=#0050ef;strokeColor=#001DBC;fontColor=#ffffff;" vertex="1" parent="1"><mxGeometry x="760" y="1730" width="120" height="120" as="geometry"/></mxCell><mxCell id="33" value="RENDERED_WITH" style="edgeStyle=none;html=1;" edge="1" parent="1" source="35" target="36"><mxGeometry relative="1" as="geometry"/></mxCell><mxCell id="34" value="PROVIDES_VALUE" style="edgeStyle=none;html=1;" edge="1" parent="1" source="35" target="38"><mxGeometry relative="1" as="geometry"><mxPoint x="1072.6363703168704" y="2145.0011022837134" as="targetPoint"/></mxGeometry></mxCell><mxCell id="35" value="&lt;b&gt;ActionParameter&lt;/b&gt;&lt;br&gt;- name" style="ellipse;whiteSpace=wrap;html=1;aspect=fixed;fillColor=#0050ef;strokeColor=#001DBC;fontColor=#ffffff;" vertex="1" parent="1"><mxGeometry x="1030" y="1730" width="120" height="120" as="geometry"/></mxCell><mxCell id="51" value="ON_INIT" style="edgeStyle=none;rounded=0;orthogonalLoop=1;jettySize=auto;html=1;" edge="1" parent="1" source="36" target="52"><mxGeometry x="-0.4777" y="-1" relative="1" as="geometry"><mxPoint y="-1" as="offset"/></mxGeometry></mxCell><mxCell id="36" value="&lt;b&gt;Widget&lt;/b&gt;&lt;br&gt;- type" style="ellipse;whiteSpace=wrap;html=1;aspect=fixed;fillColor=#0050ef;strokeColor=#001DBC;fontColor=#ffffff;" vertex="1" parent="1"><mxGeometry x="1300" y="1730" width="120" height="120" as="geometry"/></mxCell><mxCell id="45" value="HAS_OUTPUT" style="edgeStyle=none;rounded=0;orthogonalLoop=1;jettySize=auto;html=1;" edge="1" parent="1" source="52" target="46"><mxGeometry relative="1" as="geometry"/></mxCell><mxCell id="47" value="HAS_INPUT" style="edgeStyle=none;rounded=0;orthogonalLoop=1;jettySize=auto;html=1;" edge="1" parent="1" source="52" target="38"><mxGeometry relative="1" as="geometry"/></mxCell><mxCell id="38" value="&lt;font style=&quot;font-size: 14px&quot;&gt;&lt;b&gt;Input&lt;/b&gt;&lt;/font&gt;&lt;br&gt;- name" style="ellipse;whiteSpace=wrap;html=1;aspect=fixed;fillColor=#76608a;fontColor=#ffffff;strokeColor=#432D57;" vertex="1" parent="1"><mxGeometry x="910" y="2130" width="120" height="120" as="geometry"/></mxCell><mxCell id="41" value="FOR_REL" style="rounded=0;orthogonalLoop=1;jettySize=auto;html=1;" edge="1" parent="1" source="39" target="40"><mxGeometry relative="1" as="geometry"/></mxCell><mxCell id="44" value="HAS_CAPTION" style="edgeStyle=none;rounded=0;orthogonalLoop=1;jettySize=auto;html=1;" edge="1" parent="1" source="39" target="26"><mxGeometry relative="1" as="geometry"/></mxCell><mxCell id="39" value="&lt;b&gt;NodeStyle&lt;br&gt;&lt;/b&gt;- color&lt;br&gt;- size&lt;br&gt;- icon" style="ellipse;whiteSpace=wrap;html=1;aspect=fixed;strokeColor=#666666;fillColor=#f5f5f5;fontColor=#333333;" vertex="1" parent="1"><mxGeometry x="950" y="1420" width="120" height="120" as="geometry"/></mxCell><mxCell id="40" value="&lt;b&gt;&lt;font style=&quot;font-size: 13px&quot; color=&quot;#000000&quot;&gt;RelDef&lt;br&gt;&lt;/font&gt;&lt;/b&gt;&lt;span style=&quot;color: rgb(0 , 0 , 0) ; font-size: 13px&quot;&gt;- name&lt;/span&gt;&lt;font color=&quot;#000000&quot;&gt;&lt;br&gt;&lt;/font&gt;" style="ellipse;whiteSpace=wrap;html=1;aspect=fixed;direction=west;strokeColor=#9673a6;fillColor=#CCFF99;" vertex="1" parent="1"><mxGeometry x="1275" y="1460" width="120" height="120" as="geometry"/></mxCell><mxCell id="46" value="&lt;font style=&quot;font-size: 14px&quot;&gt;&lt;b&gt;Output&lt;/b&gt;&lt;/font&gt;&lt;br&gt;- name" style="ellipse;whiteSpace=wrap;html=1;aspect=fixed;fillColor=#76608a;fontColor=#ffffff;strokeColor=#432D57;" vertex="1" parent="1"><mxGeometry x="910" y="2330" width="120" height="120" as="geometry"/></mxCell><mxCell id="52" value="&lt;b style=&quot;font-size: 14px&quot;&gt;Function&lt;/b&gt;&lt;br&gt;- name" style="ellipse;whiteSpace=wrap;html=1;aspect=fixed;fillColor=#76608a;fontColor=#ffffff;strokeColor=#432D57;" vertex="1" parent="1"><mxGeometry x="480" y="2180" width="120" height="120" as="geometry"/></mxCell></root></mxGraphModel></diagram></mxfile>